<?xml version="1.0" encoding="iso-8859-1"?>
<!-- Generator: Adobe Illustrator 19.0.0, SVG Export Plug-In . SVG Version: 6.00 Build 0)  -->
<svg version="1.1" id="Layer_1" xmlns="http://www.w3.org/2000/svg" xmlns:xlink="http://www.w3.org/1999/xlink" x="0px" y="0px"
	 viewBox="0 0 512 512" style="enable-background:new 0 0 512 512;" xml:space="preserve">
<circle style="fill:#273B7A;" cx="256" cy="256" r="256"/>
<path style="fill:#121149;" d="M280.221,510.852c113.916-10.693,206.115-96.02,227.214-206.584L336.922,133.754L259.16,270.079
	l44.985,44.987l-123.804,95.909L280.221,510.852z"/>
<path style="fill:#FFC61B;" d="M322.617,414.767H189.383c-7.004,0-12.683-5.679-12.683-12.683V295.283
	c0-7.004,5.679-12.683,12.683-12.683h133.234c7.004,0,12.683,5.679,12.683,12.683v106.801
	C335.3,409.088,329.621,414.767,322.617,414.767z"/>
<path style="fill:#EAA22F;" d="M322.617,282.602h-66.043v132.167h66.043c7.004,0,12.683-5.679,12.683-12.683V295.284
	C335.3,288.278,329.621,282.602,322.617,282.602z"/>
<circle style="fill:#D35933;" cx="256" cy="220.919" r="118.949"/>
<path style="fill:#B54324;" d="M256,101.974c65.695,0,118.949,53.255,118.949,118.95S321.695,339.873,256,339.873V101.974z"/>
<circle style="fill:#FFFFFF;" cx="256" cy="220.919" r="83.265"/>
<path style="fill:#D0D1D3;" d="M256,137.659c45.985,0,83.265,37.279,83.265,83.265S301.985,304.188,256,304.188V137.659z"/>
<circle style="fill:#D35933;" cx="256" cy="220.919" r="47.58"/>
<path style="fill:#B54324;" d="M256,173.344c26.277,0,47.58,21.302,47.58,47.58s-21.302,47.58-47.58,47.58V173.344z"/>
<circle style="fill:#FFFFFF;" cx="256" cy="220.919" r="23.79"/>
<path style="fill:#D0D1D3;" d="M256,197.134c13.14,0,23.79,10.65,23.79,23.79c0,13.14-10.65,23.79-23.79,23.79V197.134z"/>
<g>
</g>
<g>
</g>
<g>
</g>
<g>
</g>
<g>
</g>
<g>
</g>
<g>
</g>
<g>
</g>
<g>
</g>
<g>
</g>
<g>
</g>
<g>
</g>
<g>
</g>
<g>
</g>
<g>
</g>
</svg>
